<?xml version="1.0" encoding="UTF-8" standalone="no"?>
<!-- Created with Inkscape (http://www.inkscape.org/) -->

<svg
   width="68.122749mm"
   height="50.721813mm"
   viewBox="0 0 68.122749 50.721813"
   version="1.1"
   id="svg1186"
   inkscape:version="1.1 (1:1.1+202105261517+ce6663b3b7)"
   sodipodi:docname="arrowleft.svg"
   xmlns:inkscape="http://www.inkscape.org/namespaces/inkscape"
   xmlns:sodipodi="http://sodipodi.sourceforge.net/DTD/sodipodi-0.dtd"
   xmlns="http://www.w3.org/2000/svg"
   xmlns:svg="http://www.w3.org/2000/svg">
  <sodipodi:namedview
     id="namedview1188"
     pagecolor="#ffffff"
     bordercolor="#666666"
     borderopacity="1.0"
     inkscape:pageshadow="2"
     inkscape:pageopacity="0.0"
     inkscape:pagecheckerboard="0"
     inkscape:document-units="mm"
     showgrid="false"
     inkscape:zoom="0.74118967"
     inkscape:cx="238.13068"
     inkscape:cy="149.08465"
     inkscape:window-width="1920"
     inkscape:window-height="1015"
     inkscape:window-x="0"
     inkscape:window-y="0"
     inkscape:window-maximized="1"
     inkscape:current-layer="layer1" />
  <defs
     id="defs1183">
    <filter
       inkscape:collect="always"
       style="color-interpolation-filters:sRGB"
       id="filter29363"
       x="-0.053331666"
       y="-0.074348561"
       width="1.1066633"
       height="1.1486971">
      <feGaussianBlur
         inkscape:collect="always"
         stdDeviation="38.774776"
         id="feGaussianBlur29365" />
    </filter>
  </defs>
  <g
     inkscape:label="Warstwa 1"
     inkscape:groupmode="layer"
     id="layer1"
     transform="translate(-41.973477,-109.21722)">
    <g
       id="g30205"
       transform="matrix(0.03527778,0,0,-0.03527778,-51.454225,484.29536)"
       style="fill:#000000;stroke:none">
      <path
         d="m 2935.5646,10253.17 c -15.8642,-44.018 -52.2302,-140.738 -80.4263,-215.335 -88.2911,-233.1996 -119.047,-378.3087 -113.0008,-531.5888 2.041,-49.5154 18.8351,-167.6923 24.0079,-169.9066 1.4127,-0.4963 28.4227,0.7245 59.2315,2.5941 54.9747,2.8999 76.7355,1.6011 65.2822,-3.8961 -5.7266,-2.7485 10.4788,-25.5023 27.0854,-38.0821 16.1483,-11.6253 41.7077,-12.2751 166.8515,-3.8802 194.3585,13.4323 373.7135,21.4246 552.5146,24.4541 92.3688,2.0588 127.2625,7.6505 143.3737,23.0162 22.3914,23.0772 1.5095,49.458 -53.3883,65.9712 -28.0406,8.2661 -31.7818,11.1678 -31.1325,22.0482 0.1148,7.1008 -2.3855,13.5337 -5.6879,14.2973 -2.825,0.9927 -40.3144,10.5953 -82.7476,21.9352 -42.433,11.3398 -93.3413,25.6577 -112.8877,32.1292 l -36.2676,11.9506 -2.6907,23.9559 c -3.5495,29.4153 3.7618,42.3189 42.8939,75.7797 69.6365,60.4317 126.0438,93.3764 310.7268,182.0173 194.7047,93.4508 252.6003,115.9541 472.4628,183.9018 70.437,22.064 143.5271,47.163 162.6158,56.325 32.4508,15.575 35.8104,18.362 40.1059,35.103 2.7681,10.136 2.3296,26.952 -0.8006,38.367 -8.0926,26.648 -172.1297,307.253 -195.6075,334.149 -21.3975,23.785 -48.2353,33.216 -80.5142,28.292 -20.1763,-3.225 -21.8178,-2.253 -35.9045,19.758 -7.8448,12.674 -17.7511,29.644 -21.645,37.756 l -7.1005,14.794 -59.6323,-12.769 c -90.7664,-20.077 -182.0857,-45.119 -277.0518,-76.019 -74.7318,-24.126 -106.9152,-37.811 -246.0144,-103.987 -170.3665,-81.769 -197.8544,-97.898 -330.2926,-191.408 -42.1481,-29.624 -77.8062,-53.197 -79.925,-52.451 -2.1188,0.744 -1.1451,2.385 2.1954,3.988 9.0671,4.352 6.2253,77.556 -3.986,104.949 -16.1093,43.35 -48.5407,43.637 -74.1015,0.25 -15.0996,-26.036 -37.3201,-82.499 -39.2679,-100.462 -2.1765,-17.485 -4.3318,39.61 -4.0999,127.206 -0.2851,40.964 -2.3075,76.984 -4.8652,79.866 -2.8056,2.175 -17.1795,6.434 -33.2328,9.298 l -28.0976,4.714 z"
         id="path29343"
         style="opacity:0.732354;fill:#000000;fill-opacity:1;stroke-width:1;filter:url(#filter29363)" />
      <path
         d="m 2945.2718,10270.788 c -15.2863,-42.414 -50.3277,-135.611 -77.4967,-207.491 -85.0751,-224.7054 -114.7107,-364.5289 -108.8847,-512.2257 1.9666,-47.7118 18.149,-161.5841 23.1334,-163.7178 1.3612,-0.4782 27.3874,0.6982 57.0739,2.4997 52.9723,2.7942 73.9404,1.5427 62.9043,-3.7542 -5.518,-2.6484 10.0971,-24.5734 26.0988,-36.695 15.5601,-11.2018 40.1885,-11.828 160.7739,-3.7388 187.279,12.943 360.1009,20.6442 532.3891,23.5633 89.0043,1.9838 122.627,7.3718 138.1513,22.1778 21.5758,22.2366 1.4545,47.6565 -51.4436,63.5682 -27.0192,7.965 -30.6241,10.761 -29.9985,21.2451 0.1106,6.8422 -2.2986,13.0407 -5.4807,13.7765 -2.7221,0.9566 -38.8459,10.2094 -79.7335,21.1362 -40.8874,10.9268 -89.9413,24.7231 -108.7757,30.9589 l -34.9466,11.5153 -2.5927,23.0833 c -3.4202,28.3439 3.6248,40.7774 41.3315,73.0194 67.1,58.2305 121.4526,89.9752 299.4085,175.3873 187.6125,90.0468 243.3993,111.7304 455.2532,177.2035 67.8713,21.26 138.2991,45.445 156.6925,54.273 31.2688,15.008 34.506,17.693 38.645,33.824 2.6673,9.767 2.2448,25.971 -0.7714,36.97 -7.7978,25.677 -165.8598,296.061 -188.4824,321.977 -20.6181,22.919 -46.4784,32.006 -77.5815,27.262 -19.4414,-3.108 -21.0231,-2.171 -34.5967,19.038 -7.559,12.212 -17.1045,28.564 -20.8565,36.381 l -6.8419,14.255 -57.4602,-12.304 c -87.4602,-19.346 -175.4532,-43.475 -266.9601,-73.25 -72.0097,-23.247 -103.0208,-36.434 -237.0533,-100.199 -164.1608,-78.791 -190.6475,-94.332 -318.2616,-184.436 -40.6128,-28.545 -74.9721,-51.259 -77.0137,-50.541 -2.0416,0.717 -1.1034,2.299 2.1154,3.843 8.7369,4.194 5.9986,74.731 -3.8408,101.126 -15.5225,41.771 -46.7726,42.048 -71.4023,0.241 -14.5496,-25.087 -35.9607,-79.494 -37.8376,-96.802 -2.0972,-16.848 -4.174,38.167 -3.9505,122.572 -0.2747,39.472 -2.2235,74.18 -4.688,76.957 -2.7034,2.096 -16.5537,6.2 -32.0223,8.959 l -27.0741,4.543 z"
         id="path3963"
         style="fill:#a9014a;fill-opacity:1;stroke-width:1" />
    </g>
  </g>
</svg>
