<?xml version="1.0" encoding="UTF-8" standalone="no"?>
<!-- Created with Inkscape (http://www.inkscape.org/) -->

<svg
   width="28.898109mm"
   height="23.177523mm"
   viewBox="0 0 28.898109 23.177523"
   version="1.1"
   id="svg2019"
   inkscape:version="1.1 (1:1.1+202105261517+ce6663b3b7)"
   sodipodi:docname="catLogo.svg"
   xmlns:inkscape="http://www.inkscape.org/namespaces/inkscape"
   xmlns:sodipodi="http://sodipodi.sourceforge.net/DTD/sodipodi-0.dtd"
   xmlns="http://www.w3.org/2000/svg"
   xmlns:svg="http://www.w3.org/2000/svg">
  <sodipodi:namedview
     id="namedview2021"
     pagecolor="#ffffff"
     bordercolor="#666666"
     borderopacity="1.0"
     inkscape:pageshadow="2"
     inkscape:pageopacity="0.0"
     inkscape:pagecheckerboard="0"
     inkscape:document-units="mm"
     showgrid="false"
     inkscape:zoom="2.9647587"
     inkscape:cx="143.51927"
     inkscape:cy="9.2756284"
     inkscape:window-width="1920"
     inkscape:window-height="1015"
     inkscape:window-x="0"
     inkscape:window-y="0"
     inkscape:window-maximized="1"
     inkscape:current-layer="text12100" />
  <defs
     id="defs2016" />
  <g
     inkscape:label="Warstwa 1"
     inkscape:groupmode="layer"
     id="layer1"
     transform="translate(-61.749241,-201.47162)">
    <ellipse
       style="opacity:0.732354;fill:#000000;fill-opacity:0;stroke-width:6.25978;stroke-linejoin:round;stop-color:#000000"
       id="path19706"
       cx="56.817535"
       cy="200.47443"
       rx="34.433071"
       ry="21.280811" />
    <g
       id="g19904">
      <circle
         style="opacity:0.732354;fill:#000000;fill-opacity:0;stroke:none;stroke-width:1.86;stroke-linejoin:round;stroke-miterlimit:4;stroke-dasharray:none;stroke-opacity:1;stop-color:#000000"
         id="path19730"
         cx="71.663307"
         cy="211.35103"
         r="21.332939" />
      <g
         id="g38875">
        <path
           id="path238-2-5"
           style="stroke-width:0.264582"
           d="m 70.329601,209.16756 0.449255,3.73911 c 0.06629,0.5813 -0.02526,1.17574 -0.264087,1.74384 -0.198317,0.47556 -0.303549,0.96447 -0.303549,1.45333 0,0.1189 -5.1e-5,0.23779 0.01514,0.35668 0,0 -1.545914,-0.31721 -1.559121,-0.25093 -0.01514,0.0658 1.598839,0.52848 1.598839,0.52848 0.05261,0.29089 0.132039,0.56819 0.250937,0.83243 0,0 -2.576319,0.0531 -2.576319,0.13204 0,0.0658 2.695253,0.13204 2.695253,0.13204 0.11889,0.22463 0.25093,0.43559 0.409791,0.64716 0,0 -2.391353,0.64747 -2.378145,0.71349 0.01514,0.0531 2.563213,-0.50186 2.563213,-0.50186 0.224623,0.25093 0.475553,0.48872 0.766353,0.71323 1.123031,0.85874 2.615832,1.33461 4.20126,1.33461 1.585435,0 3.07849,-0.47607 4.201508,-1.33461 0.290398,-0.22462 0.541786,-0.46239 0.766418,-0.71323 0,0 2.536448,0.55473 2.562907,0.50186 0.01514,-0.0658 -2.378146,-0.71349 -2.378146,-0.71349 0.158345,-0.21146 0.290894,-0.42243 0.409784,-0.64716 0,-0.0151 2.695005,-0.0663 2.695005,-0.13204 0,-0.0658 -2.576318,-0.13204 -2.576318,-0.13204 0.118891,-0.2641 0.198318,-0.555 0.25093,-0.83243 0,0 1.611792,-0.46241 1.598591,-0.52848 -0.01521,-0.0658 -1.558874,0.25093 -1.558874,0.25093 0.01514,-0.11889 0.01514,-0.23778 0.01514,-0.35668 0,-0.50185 -0.105739,-0.99088 -0.304052,-1.45333 -0.237781,-0.5681 -0.330364,-1.16254 -0.264086,-1.74384 l 0.449247,-3.73911 -4.108829,2.51026 c -0.568137,-0.13205 -1.149533,-0.19833 -1.757286,-0.19833 -0.594553,0 -1.188953,0.0663 -1.75704,0.19833 z m 5.872803,7.54698 c 0.402704,0 0.805824,0.13559 1.1163,0.40625 0.02526,0.0252 0.02526,0.0663 -0.01514,0.0925 l -1.056957,0.95143 c -0.02525,0.0252 -0.07893,0.0252 -0.105739,0 l -1.056949,-0.95143 c -0.02526,-0.0252 -0.02526,-0.0663 0,-0.0925 0.310629,-0.27066 0.713341,-0.40625 1.116293,-0.40625 z"
           sodipodi:nodetypes="cccsccccscccccscccccsccccsccccsccsccccccss" />
        <ellipse
           style="opacity:0.852945;fill:none;stroke:none;stroke-width:1;stroke-linejoin:round;stroke-miterlimit:4;stroke-dasharray:none;stroke-opacity:1;stop-color:#000000"
           id="path8785"
           cx="75.614761"
           cy="213.52582"
           rx="11.650735"
           ry="11.123321" />
        <g
           aria-label="MOTIVATIONAL CAT"
           transform="rotate(149.84055,75.618403,214.69211)"
           id="text12100"
           style="font-size:3.90631px;line-height:1.25;font-family:'Noto Serif CJK JP';-inkscape-font-specification:'Noto Serif CJK JP';letter-spacing:0.291618px;stroke-width:0.264583">
          <path
             d="m 90.164714,214.59168 -0.180834,0.91695 -1.620674,0.34138 1.368981,0.93487 -0.180465,0.91508 -2.793903,-0.55099 0.134335,-0.68117 2.043497,0.40301 -1.379471,-0.94083 0.09005,-0.4566 1.633378,-0.34666 -2.043498,-0.403 0.134704,-0.68304 z"
             style="font-weight:bold;font-family:sans-serif;-inkscape-font-specification:'sans-serif Bold'"
             id="path39024" />
          <path
             d="m 87.649831,220.44678 q 0.177164,-0.28515 0.06419,-0.57316 -0.112975,-0.28801 -0.495325,-0.52557 -0.38073,-0.23656 -0.688989,-0.21026 -0.308258,0.0263 -0.485422,0.31143 -0.178171,0.28676 -0.0652,0.57478 0.112975,0.28801 0.493705,0.52456 0.38235,0.23756 0.690608,0.21127 0.308259,-0.0263 0.48643,-0.31305 z m 0.452016,0.28084 q -0.362382,0.58325 -0.901478,0.70639 -0.539096,0.12315 -1.127203,-0.24226 -0.586486,-0.36439 -0.714883,-0.90226 -0.128397,-0.53787 0.233985,-1.12111 0.361375,-0.58163 0.901477,-0.70639 0.539096,-0.12315 1.125583,0.24125 0.588106,0.3654 0.716503,0.90327 0.127391,0.53949 -0.233984,1.12111 z"
             style="font-weight:bold;font-family:sans-serif;-inkscape-font-specification:'sans-serif Bold'"
             id="path39026" />
          <path
             d="m 86.391891,222.95973 -1.967072,1.7375 -0.367451,-0.416 0.707631,-0.62505 -1.517785,-1.71832 0.55038,-0.48615 1.517785,1.71833 0.709061,-0.62631 z"
             style="font-weight:bold;font-family:sans-serif;-inkscape-font-specification:'sans-serif Bold'"
             id="path39028" />
          <path
             d="m 83.353703,225.34771 -0.636647,0.36597 -1.419216,-2.46886 0.636647,-0.36598 z"
             style="font-weight:bold;font-family:sans-serif;-inkscape-font-specification:'sans-serif Bold'"
             id="path39030" />
          <path
             d="m 81.616206,226.31512 -0.700774,0.23192 -1.37749,-1.75816 -0.05484,2.2322 -0.700774,0.23193 0.106621,-3.03491 0.83115,-0.27508 z"
             style="font-weight:bold;font-family:sans-serif;-inkscape-font-specification:'sans-serif Bold'"
             id="path39032" />
          <path
             d="m 75.774827,225.18773 1.145508,-0.0792 0.144994,-0.53006 0.736398,-0.0509 -0.855896,2.91367 -0.873402,0.0604 -1.248643,-2.7682 0.736398,-0.0509 z m 0.999269,0.46053 -0.77826,0.0538 0.466307,1.10346 z"
             style="font-weight:bold;font-family:sans-serif;-inkscape-font-specification:'sans-serif Bold'"
             id="path39034" />
          <path
             d="m 74.290725,227.49711 -2.58479,-0.45512 0.09625,-0.54664 0.929849,0.16373 0.397569,-2.25794 0.723215,0.12734 -0.397569,2.25794 0.931726,0.16405 z"
             style="font-weight:bold;font-family:sans-serif;-inkscape-font-specification:'sans-serif Bold'"
             id="path39036" />
          <path
             d="m 70.543357,226.62266 -0.684594,-0.26568 1.0303,-2.6548 0.684593,0.26568 z"
             style="font-weight:bold;font-family:sans-serif;-inkscape-font-specification:'sans-serif Bold'"
             id="path39038" />
          <path
             d="m 67.532957,224.55004 q 0.277546,0.18884 0.569998,0.0879 0.292452,-0.10092 0.545672,-0.47309 0.252148,-0.37059 0.238668,-0.67967 -0.01348,-0.30908 -0.291027,-0.49793 -0.279123,-0.18991 -0.571575,-0.089 -0.292452,0.10092 -0.544599,0.47151 -0.253221,0.37217 -0.239741,0.68125 0.01348,0.30908 0.292604,0.499 z m -0.299358,0.43997 Q 66.66589,224.60375 66.56522,224.06 q -0.10067,-0.54374 0.288817,-1.11618 0.388415,-0.57086 0.931148,-0.67683 0.542733,-0.10597 1.110442,0.2803 0.566131,0.3852 0.668378,0.93001 0.10067,0.54374 -0.287744,1.1146 -0.389488,0.57244 -0.932221,0.67841 -0.54431,0.1049 -1.110441,-0.2803 z"
             style="font-weight:bold;font-family:sans-serif;-inkscape-font-specification:'sans-serif Bold'"
             id="path39040" />
          <path
             d="m 64.789864,222.90647 -0.50323,-0.64764 0.906821,-2.01623 -1.542295,1.19839 -0.427161,-0.54974 2.248679,-1.74726 0.50323,0.64764 -0.906821,2.01623 1.542296,-1.19839 0.42716,0.54974 z"
             style="font-weight:bold;font-family:sans-serif;-inkscape-font-specification:'sans-serif Bold'"
             id="path39042" />
          <path
             d="m 63.915188,216.79094 0.389946,1.08 0.54951,-0.006 0.25068,0.69429 -3.036679,-0.025 -0.297318,-0.82346 2.320266,-1.95918 0.25068,0.69428 z m -0.169182,1.0872 -0.26493,-0.73376 -0.933507,0.75075 z"
             style="font-weight:bold;font-family:sans-serif;-inkscape-font-specification:'sans-serif Bold'"
             id="path39044" />
          <path
             d="m 61.195543,215.23915 -0.0448,-0.73297 2.288398,-0.13986 -0.07866,-1.28698 0.554013,-0.0339 0.123452,2.01996 z"
             style="font-weight:bold;font-family:sans-serif;-inkscape-font-specification:'sans-serif Bold'"
             id="path39046" />
          <path
             d="m 64.973923,208.49067 q 0.02447,0.22646 -0.0053,0.45025 -0.02974,0.22379 -0.116177,0.44599 -0.257915,0.66306 -0.7784,0.90676 -0.522264,0.24301 -1.156878,-0.004 -0.636392,-0.24755 -0.855401,-0.77889 -0.220787,-0.53204 0.03713,-1.1951 0.08643,-0.2222 0.215724,-0.40727 0.129292,-0.18507 0.300356,-0.33547 l 0.549288,0.21367 q -0.203753,0.13973 -0.336104,0.30109 -0.132352,0.16136 -0.21187,0.36579 -0.14244,0.36619 0.01062,0.66723 0.153055,0.30103 0.565465,0.46145 0.410633,0.15973 0.726873,0.0412 0.316239,-0.11849 0.45868,-0.48468 0.07952,-0.20443 0.09099,-0.41281 0.01147,-0.20839 -0.04431,-0.44907 z"
             style="font-weight:bold;font-family:sans-serif;-inkscape-font-specification:'sans-serif Bold'"
             id="path39048" />
          <path
             d="m 66.229463,206.07929 -0.697334,0.91224 0.302131,0.45903 -0.448287,0.58644 -1.621843,-2.56742 0.531688,-0.69555 2.902993,0.89145 -0.448287,0.58644 z m -1.005884,0.4459 0.473771,-0.61978 -1.136424,-0.37894 z"
             style="font-weight:bold;font-family:sans-serif;-inkscape-font-specification:'sans-serif Bold'"
             id="path39050" />
          <path
             d="m 65.523471,203.41244 2.078477,-1.60257 0.338914,0.43957 -0.747708,0.5765 1.399913,1.81565 -0.581551,0.44839 -1.399912,-1.81565 -0.749219,0.57767 z"
             style="font-weight:bold;font-family:sans-serif;-inkscape-font-specification:'sans-serif Bold'"
             id="path39052" />
        </g>
      </g>
    </g>
  </g>
</svg>
