<?xml version="1.0" encoding="UTF-8" standalone="no"?>
<!-- Created with Inkscape (http://www.inkscape.org/) -->

<svg
   width="25.145151mm"
   height="16.992201mm"
   viewBox="0 0 25.145151 16.992201"
   version="1.1"
   id="svg2019"
   inkscape:version="1.1 (1:1.1+202105261517+ce6663b3b7)"
   sodipodi:docname="catLogo.svg"
   xmlns:inkscape="http://www.inkscape.org/namespaces/inkscape"
   xmlns:sodipodi="http://sodipodi.sourceforge.net/DTD/sodipodi-0.dtd"
   xmlns="http://www.w3.org/2000/svg"
   xmlns:svg="http://www.w3.org/2000/svg">
  <sodipodi:namedview
     id="namedview2021"
     pagecolor="#ffffff"
     bordercolor="#666666"
     borderopacity="1.0"
     inkscape:pageshadow="2"
     inkscape:pageopacity="0.0"
     inkscape:pagecheckerboard="0"
     inkscape:document-units="mm"
     showgrid="false"
     inkscape:zoom="2.9647587"
     inkscape:cx="124.29342"
     inkscape:cy="74.373675"
     inkscape:window-width="1920"
     inkscape:window-height="1015"
     inkscape:window-x="0"
     inkscape:window-y="0"
     inkscape:window-maximized="1"
     inkscape:current-layer="g19904" />
  <defs
     id="defs2016" />
  <g
     inkscape:label="Warstwa 1"
     inkscape:groupmode="layer"
     id="layer1"
     transform="translate(-34.559765,-184.23095)">
    <ellipse
       style="opacity:0.732354;fill:#000000;fill-opacity:0;stroke-width:6.25978;stroke-linejoin:round;stop-color:#000000"
       id="path19706"
       cx="56.817535"
       cy="200.47443"
       rx="34.433071"
       ry="21.280811" />
    <g
       id="g19904">
      <circle
         style="opacity:0.732354;fill:#000000;fill-opacity:0;stroke:none;stroke-width:1.86;stroke-linejoin:round;stroke-miterlimit:4;stroke-dasharray:none;stroke-opacity:1;stop-color:#000000"
         id="path19730"
         cx="71.663307"
         cy="211.35103"
         r="21.332939" />
      <path
         id="path238-2-5"
         style="stroke-width:0.264582"
         d="m 46.280837,184.23095 -0.0025,0.54814 0.642263,0.004 -0.01308,2.80545 0.621641,0.004 0.01302,-2.80567 0.642263,0.002 0.0025,-0.54818 z m 2.999203,0.18013 -0.644747,3.29147 0.576392,0.11269 0.644698,-3.29121 z m -4.51921,0.0348 -0.82379,0.19449 -0.0348,3.46834 0.607196,-0.14359 -0.0087,-0.86795 0.85042,-0.20102 0.382023,0.77941 0.609676,-0.14402 z m 6.56583,0.4452 -1.403487,3.04598 0.525086,0.24191 0.767013,-1.66472 c 0.0892,-0.19319 0.154897,-0.38159 0.197536,-0.56568 l 0.0261,0.013 -0.07484,2.64033 0.69173,0.31849 1.403275,-3.04602 -0.520868,-0.23975 -0.76588,1.66247 c -0.09268,0.20145 -0.159691,0.38116 -0.200584,0.53909 l -0.02172,-0.009 0.07266,-2.6137 z m -6.87319,0.0892 c 0.02172,0.0609 0.0731,0.18013 0.152719,0.35766 0.08093,0.17578 0.131835,0.28543 0.153164,0.32893 l 0.353741,0.71794 -0.616071,0.14576 c -0.0044,-0.57874 -0.0087,-0.94818 -0.0174,-1.10857 -0.0087,-0.16186 -0.0174,-0.30893 -0.0261,-0.44164 z m -2.076166,0.14184 -0.555502,0.29413 0.575691,2.01338 c 0.06133,0.22017 0.14228,0.46004 0.243661,0.71972 -0.186227,-0.26977 -0.337644,-0.47266 -0.454515,-0.60811 l -1.346009,-1.6052 -0.555502,0.29413 2.263257,2.59638 0.701312,-0.37158 z m -2.956558,1.79117 -0.452732,0.37376 2.136073,2.5855 0.452737,-0.37376 z m 15.42464,0.32459 c -0.047,0.003 -0.09442,0.009 -0.142287,0.0174 -0.382023,0.0666 -0.752299,0.30022 -1.111435,0.70131 -0.372455,0.41596 -0.579522,0.80412 -0.621385,1.16491 -0.03912,0.36202 0.08398,0.67285 0.374632,0.933 0.243655,0.21843 0.515385,0.37855 0.814477,0.48001 l 1.147816,-1.28165 -0.763877,-0.68416 -0.367229,0.40987 0.308925,0.27716 -0.512682,0.57256 c -0.09486,-0.0501 -0.179705,-0.10878 -0.254982,-0.17578 -0.142274,-0.12749 -0.184481,-0.29979 -0.125739,-0.51621 0.05958,-0.21538 0.214941,-0.46344 0.465868,-0.74369 0.243661,-0.27238 0.487453,-0.44129 0.730801,-0.50669 0.245408,-0.0657 0.456568,-0.0174 0.633176,0.1388 0.123136,0.11009 0.218421,0.26977 0.2863,0.47827 l 0.486671,-0.24801 c -0.0892,-0.26454 -0.233653,-0.48636 -0.432936,-0.66493 -0.28195,-0.2528 -0.587564,-0.36984 -0.916114,-0.35114 z m -16.69899,0.78207 -1.218393,1.46631 0.421627,0.35026 0.410737,-0.49398 2.157833,1.79295 0.397257,-0.478 -2.157834,-1.79322 0.410738,-0.49402 z m -1.313591,2.77947 c -0.09833,-0.003 -0.191884,0.004 -0.280642,0.0174 -0.357227,0.0618 -0.617511,0.26803 -0.780325,0.6192 -0.164911,0.35505 -0.156205,0.68961 0.0261,1.00315 0.180131,0.31285 0.522175,0.58596 1.025763,0.81957 0.507775,0.23539 0.940705,0.32155 1.298758,0.25845 0.356789,-0.064 0.616635,-0.27194 0.780068,-0.62429 0.162721,-0.35113 0.15272,-0.68364 -0.03042,-0.99779 -0.183185,-0.31415 -0.52635,-0.588 -1.029944,-0.82157 -0.37768,-0.17535 -0.714016,-0.26716 -1.008715,-0.27586 z m 20.80802,0.0896 c -0.332863,-0.013 -0.713146,0.0835 -1.140944,0.29283 -0.488937,0.23931 -0.824272,0.51621 -1.006018,0.83001 -0.179699,0.31459 -0.186659,0.64148 -0.02172,0.98074 0.112259,0.2293 0.253231,0.39334 0.422923,0.49267 l 0.498681,-0.2441 c -0.187097,-0.12487 -0.319802,-0.26672 -0.397688,-0.42597 -0.178398,-0.36419 0.08137,-0.71684 0.778973,-1.05861 0.335035,-0.16404 0.619419,-0.24628 0.852685,-0.24672 0.234086,0.002 0.390291,0.0822 0.46891,0.24279 0.03912,0.0822 0.05958,0.16709 0.05833,0.25498 0,0.087 -0.0044,0.17187 -0.0174,0.25454 l 0.546196,-0.0392 c 0.0174,-0.15229 0.0174,-0.28674 -0.0013,-0.40291 -0.0174,-0.1153 -0.05526,-0.22756 -0.109216,-0.33764 -0.163597,-0.33374 -0.427711,-0.52762 -0.793381,-0.58192 -0.04569,-0.009 -0.09224,-0.013 -0.139664,-0.013 z m -15.420859,0.38028 0.386379,3.2158 c 0.05701,0.49994 -0.02172,1.01119 -0.227126,1.49978 -0.170562,0.409 -0.261066,0.82949 -0.261066,1.24993 0,0.10226 -4.4e-5,0.20451 0.01302,0.30676 0,0 -1.329555,-0.27282 -1.340914,-0.21581 -0.01302,0.0566 1.375073,0.45451 1.375073,0.45451 0.04525,0.25018 0.11356,0.48867 0.215817,0.71593 0,0 -2.215749,0.0457 -2.215749,0.11356 0,0.0566 2.318038,0.11356 2.318038,0.11356 0.102251,0.19319 0.215811,0.37463 0.352439,0.55659 0,0 -2.056671,0.55685 -2.045312,0.61363 0.01302,0.0457 2.204478,-0.43162 2.204478,-0.43162 0.193186,0.21581 0.408997,0.42032 0.659098,0.61341 0.965857,0.73855 2.249733,1.14782 3.613272,1.14782 1.363545,0 2.64764,-0.40944 3.613485,-1.14782 0.249756,-0.19318 0.465961,-0.39768 0.659154,-0.61341 0,0 2.181459,0.47709 2.204215,0.43162 0.01302,-0.0566 -2.045312,-0.61363 -2.045312,-0.61363 0.136184,-0.18187 0.250182,-0.36331 0.352433,-0.55659 0,-0.013 2.317825,-0.057 2.317825,-0.11356 0,-0.0566 -2.215749,-0.11356 -2.215749,-0.11356 0.102251,-0.22714 0.170562,-0.47732 0.215811,-0.71593 0,0 1.386213,-0.39769 1.37486,-0.45451 -0.01308,-0.0566 -1.340702,0.21581 -1.340702,0.21581 0.01302,-0.10225 0.01302,-0.2045 0.01302,-0.30676 0,-0.43162 -0.09094,-0.8522 -0.261498,-1.24993 -0.204502,-0.48859 -0.284128,-0.99984 -0.227126,-1.49978 l 0.386373,-3.2158 -3.533777,2.15893 c -0.488624,-0.11357 -0.98865,-0.17057 -1.511345,-0.17057 -0.511342,0 -1.022553,0.057 -1.511133,0.17057 z m -5.505903,0.14229 c 0.216681,-0.002 0.502812,0.0792 0.857987,0.24365 0.710317,0.32938 0.986347,0.66472 0.828014,1.00602 -0.07832,0.16926 -0.228866,0.25541 -0.451161,0.25846 -0.222344,0.002 -0.506729,-0.0757 -0.853555,-0.2367 -0.348083,-0.16143 -0.592358,-0.32764 -0.73216,-0.4989 -0.140972,-0.17187 -0.171863,-0.3433 -0.09224,-0.51556 0.07832,-0.16926 0.226256,-0.25497 0.442987,-0.25715 z m 19.168833,2.29345 0.128793,0.61055 0.868,0.013 0.180569,0.85533 -0.788548,0.36332 0.129225,0.61276 3.123039,-1.51 -0.17448,-0.82828 z m -21.067427,0.46783 -0.0805,0.96938 2.57993,0.78454 -0.0019,0.0174 -2.674044,0.35375 -0.07919,0.95567 3.342506,0.27673 0.04788,-0.57612 -2.242811,-0.1858 c -0.182747,-0.013 -0.385509,-0.0174 -0.607197,-0.009 l 0.0019,-0.0261 2.898867,-0.39986 0.05614,-0.67911 -2.789219,-0.86839 0.0019,-0.0174 c 0.194927,0.0391 0.385942,0.064 0.57347,0.0796 l 2.265485,0.18753 0.04913,-0.58987 z m 24.181586,0.15751 c -0.06133,0.0217 -0.181439,0.0687 -0.361139,0.14402 -0.177522,0.0766 -0.288478,0.12487 -0.332857,0.14533 l -0.726151,0.33634 -0.130533,-0.61964 c 0.578695,0.009 0.948095,0.013 1.108525,0.009 0.161857,-0.003 0.309363,-0.009 0.442111,-0.0174 z m 0.156205,1.82915 -0.0174,0.64205 -2.804314,-0.0818 -0.0174,0.62143 2.804315,0.0818 -0.0174,0.64205 0.548155,0.0174 0.0557,-1.90552 z m -11.88242,1.60051 c 0.346343,0 0.693044,0.11661 0.960068,0.34939 0.02172,0.0217 0.02172,0.057 -0.01302,0.0796 l -0.90903,0.81827 c -0.02172,0.0217 -0.06788,0.0217 -0.09094,0 l -0.909024,-0.81827 c -0.02172,-0.0217 -0.02172,-0.057 0,-0.0796 0.267155,-0.23278 0.613505,-0.34939 0.960062,-0.34939 z" />
    </g>
  </g>
</svg>
