<?xml version="1.0" encoding="UTF-8" standalone="no"?>
<!-- Created with Inkscape (http://www.inkscape.org/) -->

<svg
   width="36.087933mm"
   height="32.27446mm"
   viewBox="0 0 36.087933 32.27446"
   version="1.1"
   id="svg11589"
   inkscape:version="1.1 (1:1.1+202105261517+ce6663b3b7)"
   sodipodi:docname="liveicon.svg"
   xmlns:inkscape="http://www.inkscape.org/namespaces/inkscape"
   xmlns:sodipodi="http://sodipodi.sourceforge.net/DTD/sodipodi-0.dtd"
   xmlns="http://www.w3.org/2000/svg"
   xmlns:svg="http://www.w3.org/2000/svg">
  <sodipodi:namedview
     id="namedview11591"
     pagecolor="#ffffff"
     bordercolor="#666666"
     borderopacity="1.0"
     inkscape:pageshadow="2"
     inkscape:pageopacity="0.0"
     inkscape:pagecheckerboard="0"
     inkscape:document-units="mm"
     showgrid="false"
     inkscape:zoom="0.74118967"
     inkscape:cx="186.86175"
     inkscape:cy="154.48137"
     inkscape:window-width="1920"
     inkscape:window-height="1015"
     inkscape:window-x="0"
     inkscape:window-y="0"
     inkscape:window-maximized="1"
     inkscape:current-layer="layer1" />
  <defs
     id="defs11586">
    <filter
       inkscape:collect="always"
       style="color-interpolation-filters:sRGB"
       id="filter3780"
       x="-0.021538296"
       y="-0.024374346"
       width="1.0430766"
       height="1.0487487">
      <feGaussianBlur
         inkscape:collect="always"
         stdDeviation="4.2421519"
         id="feGaussianBlur3782" />
    </filter>
  </defs>
  <g
     inkscape:label="Warstwa 1"
     inkscape:groupmode="layer"
     id="layer1"
     transform="translate(-55.876307,-107.759)">
    <g
       id="g4468"
       transform="matrix(0.96113302,0,0,0.95935148,20.591718,106.72631)"
       style="stroke-width:1.04141">
      <g
         id="g3760"
         transform="matrix(0.0761511,0,0,0.0761511,37.486759,0.04062567)"
         style="opacity:0.763872;fill:#000000;fill-opacity:0.815184;stroke-width:3.61831;filter:url(#filter3780)">
        <g
           id="g3728"
           style="fill:#000000;fill-opacity:0.815184;stroke-width:3.61831">
          <path
             id="path3726"
             d="m 433.5,67 c -25.3,-25.3 -59,-39.3 -94.8,-39.3 -35.8,0 -69.6,14 -94.9,39.4 l -7.3,7.3 -7.5,-7.5 C 203.6,41.5 169.9,27.5 134,27.5 98.2,27.5 64.6,41.4 39.3,66.8 13.9,92.2 0,125.9 0,161.7 c 0,35.8 14,69.5 39.4,94.8 l 182.7,182.7 c 3.8,3.8 9,6 14.5,6 5.4,0 10.6,-2.2 14.5,-6 L 433.3,256.8 c 25.4,-25.4 39.3,-59.1 39.4,-94.9 0.1,-35.8 -13.9,-69.5 -39.2,-94.9 z m -301,50.2 c -23.9,0 -43.4,19.5 -43.4,43.4 0,11 -8.9,19.9 -19.9,19.9 -11,0 -19.9,-8.9 -19.9,-19.9 0,-45.8 37.3,-83.1 83.1,-83.1 11,0 19.9,8.9 19.9,19.9 0.1,11 -8.8,19.8 -19.8,19.8 z"
             style="fill:#000000;fill-opacity:0.815184;stroke-width:3.61831" />
        </g>
        <g
           id="g3730"
           style="fill:#000000;fill-opacity:0.815184;stroke-width:3.61831" />
        <g
           id="g3732"
           style="fill:#000000;fill-opacity:0.815184;stroke-width:3.61831" />
        <g
           id="g3734"
           style="fill:#000000;fill-opacity:0.815184;stroke-width:3.61831" />
        <g
           id="g3736"
           style="fill:#000000;fill-opacity:0.815184;stroke-width:3.61831" />
        <g
           id="g3738"
           style="fill:#000000;fill-opacity:0.815184;stroke-width:3.61831" />
        <g
           id="g3740"
           style="fill:#000000;fill-opacity:0.815184;stroke-width:3.61831" />
        <g
           id="g3742"
           style="fill:#000000;fill-opacity:0.815184;stroke-width:3.61831" />
        <g
           id="g3744"
           style="fill:#000000;fill-opacity:0.815184;stroke-width:3.61831" />
        <g
           id="g3746"
           style="fill:#000000;fill-opacity:0.815184;stroke-width:3.61831" />
        <g
           id="g3748"
           style="fill:#000000;fill-opacity:0.815184;stroke-width:3.61831" />
        <g
           id="g3750"
           style="fill:#000000;fill-opacity:0.815184;stroke-width:3.61831" />
        <g
           id="g3752"
           style="fill:#000000;fill-opacity:0.815184;stroke-width:3.61831" />
        <g
           id="g3754"
           style="fill:#000000;fill-opacity:0.815184;stroke-width:3.61831" />
        <g
           id="g3756"
           style="fill:#000000;fill-opacity:0.815184;stroke-width:3.61831" />
        <g
           id="g3758"
           style="fill:#000000;fill-opacity:0.815184;stroke-width:3.61831" />
      </g>
      <g
         id="g1171"
         transform="matrix(0.0761511,0,0,0.0761511,36.957592,-1.0177077)"
         style="fill:#ff0000;fill-opacity:0.815184;stroke-width:3.61831">
        <g
           id="g1117"
           style="fill:#ff0000;fill-opacity:0.815184;stroke-width:3.61831">
          <path
             id="XMLID_810_"
             d="m 433.5,67 c -25.3,-25.3 -59,-39.3 -94.8,-39.3 -35.8,0 -69.6,14 -94.9,39.4 l -7.3,7.3 -7.5,-7.5 C 203.6,41.5 169.9,27.5 134,27.5 98.2,27.5 64.6,41.4 39.3,66.8 13.9,92.2 0,125.9 0,161.7 c 0,35.8 14,69.5 39.4,94.8 l 182.7,182.7 c 3.8,3.8 9,6 14.5,6 5.4,0 10.6,-2.2 14.5,-6 L 433.3,256.8 c 25.4,-25.4 39.3,-59.1 39.4,-94.9 0.1,-35.8 -13.9,-69.5 -39.2,-94.9 z m -301,50.2 c -23.9,0 -43.4,19.5 -43.4,43.4 0,11 -8.9,19.9 -19.9,19.9 -11,0 -19.9,-8.9 -19.9,-19.9 0,-45.8 37.3,-83.1 83.1,-83.1 11,0 19.9,8.9 19.9,19.9 0.1,11 -8.8,19.8 -19.8,19.8 z"
             style="fill:#ff0000;fill-opacity:0.815184;stroke-width:3.61831" />
        </g>
        <g
           id="g1119"
           style="fill:#ff0000;fill-opacity:0.815184;stroke-width:3.61831" />
        <g
           id="g1121"
           style="fill:#ff0000;fill-opacity:0.815184;stroke-width:3.61831" />
        <g
           id="g1123"
           style="fill:#ff0000;fill-opacity:0.815184;stroke-width:3.61831" />
        <g
           id="g1125"
           style="fill:#ff0000;fill-opacity:0.815184;stroke-width:3.61831" />
        <g
           id="g1127"
           style="fill:#ff0000;fill-opacity:0.815184;stroke-width:3.61831" />
        <g
           id="g1129"
           style="fill:#ff0000;fill-opacity:0.815184;stroke-width:3.61831" />
        <g
           id="g1131"
           style="fill:#ff0000;fill-opacity:0.815184;stroke-width:3.61831" />
        <g
           id="g1133"
           style="fill:#ff0000;fill-opacity:0.815184;stroke-width:3.61831" />
        <g
           id="g1135"
           style="fill:#ff0000;fill-opacity:0.815184;stroke-width:3.61831" />
        <g
           id="g1137"
           style="fill:#ff0000;fill-opacity:0.815184;stroke-width:3.61831" />
        <g
           id="g1139"
           style="fill:#ff0000;fill-opacity:0.815184;stroke-width:3.61831" />
        <g
           id="g1141"
           style="fill:#ff0000;fill-opacity:0.815184;stroke-width:3.61831" />
        <g
           id="g1143"
           style="fill:#ff0000;fill-opacity:0.815184;stroke-width:3.61831" />
        <g
           id="g1145"
           style="fill:#ff0000;fill-opacity:0.815184;stroke-width:3.61831" />
        <g
           id="g1147"
           style="fill:#ff0000;fill-opacity:0.815184;stroke-width:3.61831" />
      </g>
    </g>
  </g>
</svg>
