<?xml version="1.0" encoding="UTF-8" standalone="no"?>
<!-- Created with Inkscape (http://www.inkscape.org/) -->

<svg
   width="105.83334mm"
   height="84.481728mm"
   viewBox="0 0 105.83333 84.481727"
   version="1.1"
   id="svg837"
   inkscape:version="1.1 (1:1.1+202105261517+ce6663b3b7)"
   sodipodi:docname="loading.svg"
   xmlns:inkscape="http://www.inkscape.org/namespaces/inkscape"
   xmlns:sodipodi="http://sodipodi.sourceforge.net/DTD/sodipodi-0.dtd"
   xmlns="http://www.w3.org/2000/svg"
   xmlns:svg="http://www.w3.org/2000/svg">
  <sodipodi:namedview
     id="namedview839"
     pagecolor="#ffffff"
     bordercolor="#666666"
     borderopacity="1.0"
     inkscape:pageshadow="2"
     inkscape:pageopacity="0.0"
     inkscape:pagecheckerboard="0"
     inkscape:document-units="mm"
     showgrid="false"
     inkscape:zoom="1.4823793"
     inkscape:cx="126.48584"
     inkscape:cy="179.10395"
     inkscape:window-width="1920"
     inkscape:window-height="1015"
     inkscape:window-x="0"
     inkscape:window-y="0"
     inkscape:window-maximized="1"
     inkscape:current-layer="text6894" />
  <defs
     id="defs834" />
  <g
     inkscape:label="Warstwa 1"
     inkscape:groupmode="layer"
     id="layer1"
     transform="translate(-65.618471,-68.874381)">
    <circle
       style="opacity:0.732354;fill:#000000;fill-opacity:0;stroke:none;stroke-width:1.1;stroke-linejoin:round;stroke-miterlimit:4;stroke-dasharray:none;stroke-opacity:1;stop-color:#000000"
       id="path1070"
       cx="82.524109"
       cy="88.14212"
       r="15.383215" />
    <g
       id="g17482">
      <g
         aria-label="LOADING..."
         transform="rotate(-176.36123,82.92323,88.006481)"
         id="text6894"
         style="font-size:10.5833px;line-height:1.25;font-family:'Noto Serif CJK JP';-inkscape-font-specification:'Noto Serif CJK JP';stroke-width:0.264583">
        <path
           id="path20785"
           style="font-weight:bold;font-stretch:condensed;font-family:'Open Sans Condensed';-inkscape-font-specification:'Open Sans Condensed,  Bold Condensed';fill:#ffffff;stroke-width:0.264583"
           d="m -3.626938,61.232471 q -1.0398641,0.242186 -1.7404212,-0.170905 -0.7036643,-0.426418 -0.9582631,-1.519609 -0.2546094,-1.093188 0.1882552,-1.786625 0.4295221,-0.690333 1.482718,-0.935618 1.0398615,-0.242186 1.7497348,0.210903 0.7067687,0.439749 0.952054,1.492942 0.2514837,1.07986 -0.1913543,1.773297 -0.4561857,0.696541 -1.4827181,0.935615 z m 2.90681941,7.367773 q -0.97669921,0.431305 -1.74184901,0.155674 -0.7706781,-0.288144 -1.224101,-1.314933 -0.453423,-1.026787 -0.1472243,-1.790472 0.2936749,-0.758157 1.282898,-1.194993 0.9766992,-0.431305 1.75843895,-0.118113 0.77620623,0.300668 1.21304194,1.289888 0.44789207,1.014269 0.14168804,1.777954 -0.31871729,0.769215 -1.28289792,1.194992 z M 3.5011255,75.299808 Q 2.6210836,75.904371 1.8181502,75.775069 1.0074663,75.634493 0.37189916,74.709312 -0.26366535,73.784138 -0.10404711,72.976988 0.0442896,72.177586 0.93561306,71.565273 1.815655,70.960711 2.6418401,71.12386 3.4602746,71.27572 4.0725873,72.167051 4.7004012,73.08094 4.540783,73.888093 4.3698779,74.702997 3.5011255,75.299808 Z M 4.2042282,89.177768 -0.51291068,85.280696 6.025787,77.366033 q 2.7112268,0.801685 4.969543,2.667396 2.690984,2.223159 2.455939,5.473534 -0.245603,3.241661 -3.427762,7.093449 -3.0688275,3.714616 -6.4605647,4.445889 -3.40229041,0.722532 -6.3887559,-1.744731 -1.846755,-1.525696 -2.74002,-3.861681 l 2.8430027,-1.592938 q 0.6808416,1.840846 1.82055493,2.782413 Q 0.73341962,93.980711 2.9055723,93.30721 5.0584517,92.635562 7.1421162,90.113428 9.286808,87.51743 9.7429644,85.568311 10.188564,83.610478 8.8694546,82.520707 8.1729635,81.945293 7.3071566,81.531857 l -2.9206173,3.535208 1.9100735,1.578011 z m 14.8707398,-2.762613 4.357775,1.289417 1.819904,15.655708 0.17064,0.0506 q 0.141794,-1.68532 0.68165,-3.509786 l 3.103177,-10.487524 3.30771,0.978718 -5.678154,19.189922 -4.384028,-1.2972 -1.810122,-15.495787 -0.14439,-0.04265 q -0.158401,1.452005 -0.721564,3.355244 l -3.099294,10.474403 -3.281457,-0.97097 z m 21.302892,3.585166 0.601648,20.003329 -3.50264,0.10542 -0.601648,-20.003324 z m 6.965661,9.738344 q -1.583881,-4.695227 -0.504353,-7.833078 1.070933,-3.120488 4.663696,-4.332452 L 56.146216,86.006753 62.543,104.96923 57.471628,106.68 q -3.307416,1.11573 -5.976136,-0.71434 -2.664347,-1.81713 -4.151971,-6.226995 z m 3.583701,-1.324487 q 2.143929,6.355412 5.645899,5.174062 l 1.413757,-0.47693 -4.327236,-12.827547 -1.141382,0.38504 q -1.93257,0.651913 -2.310911,2.570887 -0.37397,1.931927 0.719873,5.174488 z m 9.868767,-15.533967 4.13826,3.116026 3.983601,-3.366 -2.38171,-4.600244 2.843935,-2.403023 9.184317,18.547029 -3.858134,3.259964 -16.76466,-12.141902 z m 6.800647,5.18527 3.81932,2.865799 q 0.347063,0.262238 1.703949,1.337917 1.355268,1.094937 1.7786,1.489883 -0.623854,-1.014013 -1.333545,-2.278107 -0.700856,-1.253617 -3.082566,-5.853856 z m 11.464925,-8.856706 q -4.403457,-2.302022 -5.906487,-5.188424 -1.503032,-2.886404 0.101399,-5.955483 1.61078,-3.081208 4.826609,-3.500707 3.22796,-0.41316 7.667818,1.907887 4.403455,2.302021 5.882239,5.175743 1.49089,2.88006 -0.132443,5.985531 -1.604447,3.069076 -4.826056,3.470107 -3.209495,0.40737 -7.612954,-1.894654 z m 4.902094,-9.377063 q -3.032681,-1.585414 -5.02133,-1.651933 -1.988652,-0.06651 -2.762334,1.413429 -1.560047,2.984164 4.650893,6.23109 6.210943,3.246926 7.758306,0.287026 0.78637,-1.504211 -0.403237,-3.099207 -1.177476,-1.588651 -4.222298,-3.180405 z M 78.266616,51.109151 98.090683,53.848217 97.581096,57.536416 80.984194,55.243244 80.277885,60.355194 77.05071,59.9093 Z M 62.591546,70.15903 59.861106,55.412552 c -0.410342,-2.293429 -0.196784,-4.679032 0.608803,-6.997128 0.667966,-1.940088 0.962613,-3.909729 0.839059,-5.852566 -0.03004,-0.47253 -0.05989,-0.945048 -0.150324,-1.413686 0,0 6.223959,0.869963 6.259698,0.603198 0.04355,-0.265271 -6.487686,-1.696172 -6.487686,-1.696172 -0.282624,-1.142773 -0.668357,-2.224759 -1.207665,-3.244852 0,0 10.2254,-0.862348 10.20546,-1.175897 -0.01669,-0.261444 -10.744873,0.156442 -10.744873,0.156442 -0.529268,-0.862671 -1.107341,-1.667723 -1.792161,-2.4684 0,0 9.340108,-3.17754 9.270932,-3.436599 -0.07361,-0.20738 -10.059914,2.642306 -10.059914,2.642306 -0.956118,-0.940474 -2.013462,-1.822065 -3.225908,-2.640839 -4.680195,-3.128966 -10.733175,-4.642888 -17.033999,-4.242194 -6.300855,0.400698 -12.114255,2.670048 -16.36038,6.365878 -1.097334,0.966061 -2.036308,1.974579 -2.865648,3.028225 0,0 -10.2205779,-1.563546 -10.3123771,-1.346749 -0.043653,0.265276 9.6315851,2.234511 9.6315851,2.234511 -0.575853,0.880426 -1.049315,1.752346 -1.46501,2.675538 0.0037,0.06 -10.6937611,0.94442 -10.6771368,1.205864 0.016688,0.261443 10.2721938,-0.126351 10.2721938,-0.126351 -0.405749,1.079634 -0.64789,2.255777 -0.786863,3.37169 0,0 -6.2887251,2.24506 -6.2195817,2.504279 0.077162,0.257602 6.1318857,-1.391229 6.1318857,-1.391229 -0.03012,0.476304 -7.2e-5,0.948809 0.02998,1.421338 0.126828,1.994491 0.670657,3.911237 1.575675,5.699004 1.088569,2.197638 1.606754,4.536709 1.490265,6.863641 L 15.946724,73.125365 31.641651,62.11063 c 2.291272,0.381206 4.618612,0.497667 7.033952,0.344067 2.362876,-0.150271 4.708405,-0.563789 6.932719,-1.232263 z M 37.344387,41.649996 c -1.600426,0.10177 -3.236779,-0.335196 -4.539082,-1.332379 -0.10675,-0.0938 -0.117107,-0.256914 0.03677,-0.371647 l 3.960108,-4.048304 c 0.09401,-0.106564 0.307301,-0.120127 0.42023,-0.02673 l 4.440999,3.514043 c 0.10675,0.0938 0.117107,0.256914 0.02331,0.367822 -1.166098,1.154158 -2.73229,1.794795 -4.333707,1.896636 z"
           inkscape:export-filename="/home/wojmir/Dokumenty/React/english-quiz/src/assets/loading.png"
           inkscape:export-xdpi="96"
           inkscape:export-ydpi="96" />
      </g>
    </g>
  </g>
</svg>
