<?xml version="1.0" encoding="UTF-8" standalone="no"?>
<!-- Created with Inkscape (http://www.inkscape.org/) -->

<svg
   width="87.72641mm"
   height="51.366287mm"
   viewBox="0 0 87.72641 51.366287"
   version="1.1"
   id="svg1423"
   inkscape:version="1.1 (1:1.1+202105261517+ce6663b3b7)"
   sodipodi:docname="logo.svg"
   xmlns:inkscape="http://www.inkscape.org/namespaces/inkscape"
   xmlns:sodipodi="http://sodipodi.sourceforge.net/DTD/sodipodi-0.dtd"
   xmlns="http://www.w3.org/2000/svg"
   xmlns:svg="http://www.w3.org/2000/svg">
  <sodipodi:namedview
     id="namedview1425"
     pagecolor="#ffffff"
     bordercolor="#666666"
     borderopacity="1.0"
     inkscape:pageshadow="2"
     inkscape:pageopacity="0.0"
     inkscape:pagecheckerboard="0"
     inkscape:document-units="mm"
     showgrid="false"
     inkscape:zoom="0.74118967"
     inkscape:cx="303.56602"
     inkscape:cy="200.35357"
     inkscape:window-width="1920"
     inkscape:window-height="1015"
     inkscape:window-x="0"
     inkscape:window-y="0"
     inkscape:window-maximized="1"
     inkscape:current-layer="layer1" />
  <defs
     id="defs1420">
    <clipPath
       clipPathUnits="userSpaceOnUse"
       id="clipPath175850">
      <g
         id="g175868"
         transform="matrix(5.8353666,0,0,-5.8353666,-2265.316,2424.6833)"
         style="fill:#0f0fa9;fill-opacity:0.67546;stroke-width:0.0604551">
        <g
           id="g175854"
           transform="translate(426.1104,396.0732)"
           style="fill:#0f0fa9;fill-opacity:0.67546;stroke-width:0.0604551">
          <path
             d="M 0,0 C 2.008,0.55 3.601,-8.365 -1.979,-7.607 -2.523,-4.074 -2.047,-0.56 0,0 m 19.812,14.646 c -0.732,2.211 -5.85,2.671 -4.924,-0.249 0.477,-1.434 1.612,-10.686 3.114,-17.721 0.213,-2.016 1.443,-14.244 0.492,-14.632 -0.774,0.974 -2.243,2.94 -3.668,7.374 -1.69,5.248 -4.162,23.867 -4.904,26.117 -0.742,2.252 -5.851,2.672 -4.925,-0.247 0.532,-1.536 2.237,-15.441 4.134,-23.206 -0.33,-2.703 -1.346,-6.367 -4.558,-7.246 -2.165,-0.594 -5.654,2.726 -6.405,6.708 0.891,-0.009 2.068,0.017 3.014,0.274 2.558,0.702 3.933,3.405 2.802,7.537 C 3.381,1.56 2.02,3.134 0.688,3.361 -0.693,3.619 -4.537,2.82 -5.764,0.961 -6.139,0.377 -6.525,-0.569 -6.836,-1.75 c -0.217,0.086 -0.483,0.148 -0.81,0.166 -1.854,0.127 -3.715,0.125 -5.455,-0.012 -1.082,5.501 -1.791,9.791 -1.952,10.383 -0.406,1.326 -2.819,3.035 -4.541,2.522 -1.76,-0.524 -1.666,-1.174 -1.347,-2.188 0.277,-0.855 1.236,-5.754 2.669,-11.455 -1.399,-0.298 -2.789,-0.637 -4.076,-1.03 -0.053,0.196 -0.119,0.432 -0.173,0.63 -3.284,12.005 -8.246,16.994 -13.167,15.647 -6.927,-1.895 -10.093,-11.815 -8.833,-16.422 0.582,-2.125 1.839,-1.315 1.356,0.456 -0.905,3.307 1.818,12.682 7.21,14.158 3.818,1.045 5.547,-6.817 6.57,-10.556 0.435,-1.742 0.956,-3.801 1.481,-6.026 -5.432,-2.418 -8.866,-5.175 -9.008,-5.893 -0.154,-0.676 2.15,-4.15 3.224,-3.433 1.416,1.783 3.787,3.785 6.696,5.682 1.006,-4.294 1.922,-8.57 2.192,-11.415 0.454,-4.792 -0.151,-7.743 -0.737,-9.524 -0.565,-0.804 -4.293,-5.413 -12.573,-3.475 -3.327,0.779 -8.013,1.973 -13.972,4.652 0.051,-0.966 0.122,-1.922 0.216,-2.865 5.493,-2.565 9.875,-3.773 13.167,-4.545 1.912,-0.447 3.586,-0.637 5.049,-0.637 8.157,0 11.875,7.122 11.893,7.194 h -0.011 c 1.622,2.428 2.821,6.349 2.342,11.516 -0.324,3.508 -1.223,7.874 -2.225,12 1.274,0.603 2.608,1.136 3.954,1.631 2.459,-9.141 6.04,-19.29 9.818,-18.257 2.105,0.66 -0.517,1.891 -2.154,7.873 -1.044,3.819 -1.967,7.965 -2.733,11.692 1.905,0.367 3.828,0.517 5.686,0.449 -0.482,-2.441 -0.605,-5.576 0.225,-8.606 1.077,-3.935 5.691,-7.962 11.162,-6.465 3.445,0.942 4.858,4.549 5.445,7.708 0.045,-0.145 0.09,-0.291 0.135,-0.428 2.107,-6.615 6.514,-8.963 8.679,-8.371 0.039,0.011 0.383,0.148 0.412,0.197 1.334,1 1.058,5.875 0.597,9.725 2.271,-5.978 6.852,-9.422 8.747,-8.776 2.066,0.65 -1.515,1.828 -4.127,9.828 -1.691,5.251 -3.629,20.375 -4.383,22.666"
             style="fill:#0f0fa9;fill-opacity:0.67546;fill-rule:nonzero;stroke:none;stroke-width:0.0604551"
             id="path175852" />
        </g>
        <g
           id="g175858"
           transform="translate(463.46,388.0586)"
           style="fill:#0f0fa9;fill-opacity:0.67546;stroke-width:0.0604551">
          <path
             d="m 0,0 c -2.44,-0.669 -3.094,6.05 -4.436,10.802 1.073,1.646 -0.57,5.64 0.69,5.986 C 0.465,17.939 2.48,0.679 0,0 m -4.129,19.264 c -1.85,-0.507 -4.176,-1.441 -4.398,-4.335 -2.702,-1.416 -2.161,-6.177 -1.148,-9.876 1.087,-3.976 3.633,-8.949 8.279,-7.679 5.156,1.412 5.289,8.811 3.642,14.832 -1.638,5.984 -4.091,7.682 -6.375,7.058"
             style="fill:#0f0fa9;fill-opacity:0.67546;fill-rule:nonzero;stroke:none;stroke-width:0.0604551"
             id="path175856" />
        </g>
        <g
           id="g175862"
           transform="translate(479.377,391.7354)"
           style="fill:#0f0fa9;fill-opacity:0.67546;stroke-width:0.0604551">
          <path
             d="M 0,0 C -0.377,1.379 -2.888,2.977 -4.62,2.503 -6.431,2.007 -7.907,1.687 -7.413,-0.123 -6.917,-1.935 0.872,-3.188 0,0"
             style="fill:#0f0fa9;fill-opacity:0.67546;fill-rule:nonzero;stroke:none;stroke-width:0.0604551"
             id="path175860" />
        </g>
        <g
           id="g175866"
           transform="translate(475.4346,397.6387)"
           style="fill:#0f0fa9;fill-opacity:0.67546;stroke-width:0.0604551">
          <path
             d="m 0,0 c 2.154,0.632 -0.335,1.687 -1.863,6.81 -1.967,6.57 -3.848,19.933 -4.084,20.8 -0.334,1.22 -2.741,2.593 -4.53,2.018 -1.799,-0.535 -1.66,-1.046 -1.401,-1.992 C -11.339,25.669 -7.818,-2.352 0,0"
             style="fill:#0f0fa9;fill-opacity:0.67546;fill-rule:nonzero;stroke:none;stroke-width:0.0604551"
             id="path175864" />
        </g>
      </g>
    </clipPath>
    <filter
       inkscape:collect="always"
       style="color-interpolation-filters:sRGB"
       id="filter46448"
       x="-0.089347427"
       y="-0.071354626"
       width="1.1786949"
       height="1.1427093">
      <feGaussianBlur
         inkscape:collect="always"
         stdDeviation="1.9423276"
         id="feGaussianBlur46450" />
    </filter>
    <filter
       inkscape:collect="always"
       style="color-interpolation-filters:sRGB"
       id="filter51923"
       x="-0.068667884"
       y="-0.11893016"
       width="1.1373358"
       height="1.2378603">
      <feGaussianBlur
         inkscape:collect="always"
         stdDeviation="1.5812429"
         id="feGaussianBlur51925" />
    </filter>
  </defs>
  <g
     inkscape:label="Warstwa 1"
     inkscape:groupmode="layer"
     id="layer1"
     transform="translate(-196.89882,-95.600506)">
    <g
       id="g52617"
       transform="matrix(0.69953736,0,0,0.68806719,174.95545,83.94824)"
       style="stroke-width:1.44138">
      <path
         id="path3051-3"
         style="fill:#000000;fill-opacity:0.332426;fill-rule:evenodd;stroke:none;stroke-width:0.381365px;stroke-linecap:butt;stroke-linejoin:miter;stroke-opacity:1;filter:url(#filter46448)"
         d="m 62.11656,21.596366 a 26.08669,26.08669 0 0 0 -26.086575,26.08657 26.08669,26.08669 0 0 0 2.026017,9.49668 v 29.74659 L 58.6947,73.319176 a 26.08669,26.08669 0 0 0 3.42186,0.45035 26.08669,26.08669 0 0 0 26.08713,-26.08659 26.08669,26.08669 0 0 0 -26.08713,-26.08657 z" />
      <g
         id="g3367"
         style="stroke-width:1.44138">
        <path
           style="fill:#ffffff;stroke:none;stroke-width:0.381367px;stroke-linecap:butt;stroke-linejoin:miter;stroke-opacity:1"
           d="M 36.118941,50.845166 V 81.741202 L 66.218566,61.89606 Z"
           id="path3051" />
        <g
           id="g2715"
           transform="matrix(0.26458333,0,0,0.26458333,157.51547,124.67412)"
           style="stroke-width:1.44138">
          <g
             id="g2649"
             style="stroke-width:1.44138" />
          <g
             id="g2651"
             style="stroke-width:1.44138" />
          <g
             id="g2653"
             style="stroke-width:1.44138" />
          <g
             id="g2655"
             style="stroke-width:1.44138" />
          <g
             id="g2657"
             style="stroke-width:1.44138" />
          <g
             id="g2659"
             style="stroke-width:1.44138" />
          <g
             id="g2661"
             style="stroke-width:1.44138" />
          <g
             id="g2663"
             style="stroke-width:1.44138" />
          <g
             id="g2665"
             style="stroke-width:1.44138" />
          <g
             id="g2667"
             style="stroke-width:1.44138" />
          <g
             id="g2669"
             style="stroke-width:1.44138" />
          <g
             id="g2671"
             style="stroke-width:1.44138" />
          <g
             id="g2673"
             style="stroke-width:1.44138" />
          <g
             id="g2675"
             style="stroke-width:1.44138" />
          <g
             id="g2677"
             style="stroke-width:1.44138" />
          <g
             id="g3016"
             transform="matrix(0.24888399,0,0,0.24888399,-254.65669,-560.3282)"
             style="stroke-width:5.79139">
            <circle
               style="fill:#ffffff;fill-opacity:1;stroke-width:137.018;stroke-linejoin:round;stop-color:#000000"
               id="path2894"
               cx="-470.65018"
               cy="1029.0657"
               r="379.11581" />
            <g
               id="g2870"
               transform="matrix(1.3514053,0,0,1.3514053,-816.60993,683.10592)"
               style="stroke-width:4.28545">
              <circle
                 style="fill:#f0f0f0;stroke-width:4.28545"
                 cx="256"
                 cy="256"
                 r="256"
                 id="circle2617" />
              <g
                 id="g2635"
                 style="stroke-width:4.28545">
                <path
                   style="fill:#0052b4;stroke-width:4.28545"
                   d="M 52.92,100.142 C 32.811,126.305 17.648,156.46 8.819,189.219 h 133.178 z"
                   id="path2619" />
                <path
                   style="fill:#0052b4;stroke-width:4.28545"
                   d="m 503.181,189.219 c -8.829,-32.758 -23.993,-62.913 -44.101,-89.076 l -89.075,89.076 z"
                   id="path2621" />
                <path
                   style="fill:#0052b4;stroke-width:4.28545"
                   d="m 8.819,322.784 c 8.83,32.758 23.993,62.913 44.101,89.075 l 89.074,-89.075 z"
                   id="path2623" />
                <path
                   style="fill:#0052b4;stroke-width:4.28545"
                   d="M 411.858,52.921 C 385.695,32.812 355.541,17.649 322.782,8.819 v 133.177 z"
                   id="path2625" />
                <path
                   style="fill:#0052b4;stroke-width:4.28545"
                   d="m 100.142,459.079 c 26.163,20.109 56.318,35.272 89.076,44.102 V 370.005 Z"
                   id="path2627" />
                <path
                   style="fill:#0052b4;stroke-width:4.28545"
                   d="m 189.217,8.819 c -32.758,8.83 -62.913,23.993 -89.075,44.101 l 89.075,89.075 z"
                   id="path2629" />
                <path
                   style="fill:#0052b4;stroke-width:4.28545"
                   d="m 322.783,503.181 c 32.758,-8.83 62.913,-23.993 89.075,-44.101 l -89.075,-89.075 z"
                   id="path2631" />
                <path
                   style="fill:#0052b4;stroke-width:4.28545"
                   d="m 370.005,322.784 89.075,89.076 c 20.108,-26.162 35.272,-56.318 44.101,-89.076 z"
                   id="path2633" />
              </g>
              <g
                 id="g2647"
                 style="stroke-width:4.28545">
                <path
                   style="fill:#d80027;stroke-width:4.28545"
                   d="m 509.833,222.609 h -220.44 -10e-4 V 2.167 C 278.461,0.744 267.317,0 256,0 244.681,0 233.539,0.744 222.609,2.167 v 220.44 0.001 H 2.167 C 0.744,233.539 0,244.683 0,256 c 0,11.319 0.744,22.461 2.167,33.391 h 220.44 0.001 V 509.833 C 233.539,511.256 244.681,512 256,512 c 11.317,0 22.461,-0.743 33.391,-2.167 v -220.44 -10e-4 H 509.833 C 511.256,278.461 512,267.319 512,256 c 0,-11.317 -0.744,-22.461 -2.167,-33.391 z"
                   id="path2637" />
                <path
                   style="fill:#d80027;stroke-width:4.28545"
                   d="m 322.783,322.784 v 0 L 437.019,437.02 c 5.254,-5.252 10.266,-10.743 15.048,-16.435 l -97.802,-97.802 h -31.482 z"
                   id="path2639" />
                <path
                   style="fill:#d80027;stroke-width:4.28545"
                   d="m 189.217,322.784 h -0.002 L 74.98,437.019 c 5.252,5.254 10.743,10.266 16.435,15.048 l 97.802,-97.804 z"
                   id="path2641" />
                <path
                   style="fill:#d80027;stroke-width:4.28545"
                   d="m 189.217,189.219 v -0.002 L 74.981,74.98 C 69.727,80.232 64.715,85.723 59.933,91.415 l 97.803,97.803 h 31.481 z"
                   id="path2643" />
                <path
                   style="fill:#d80027;stroke-width:4.28545"
                   d="m 322.783,189.219 v 0 L 437.02,74.981 C 431.768,69.727 426.277,64.715 420.585,59.934 l -97.802,97.803 z"
                   id="path2645" />
              </g>
            </g>
          </g>
        </g>
      </g>
      <g
         aria-label="English Quiz"
         id="g51903"
         style="font-size:17.608px;line-height:1.05;fill:#000000;fill-opacity:0.513041;stroke-width:0.360051;filter:url(#filter51923)"
         transform="matrix(1.0592003,0,0,1.0592003,-5.6289465,-1.5733775)">
        <path
           d="M 94.807589,41.103844 V 28.637242 h 9.113511 v 1.891485 h -7.050074 v 3.3015 h 5.321954 v 1.891484 h -5.321954 v 3.490648 h 7.050074 v 1.891485 z"
           style="font-weight:bold;font-family:Loma;-inkscape-font-specification:'Loma Bold';fill:#000000;fill-opacity:0.513041;stroke-width:0.360051"
           id="path51881" />
        <path
           d="m 109.8105,33.520711 q -0.47287,0 -0.84257,0.154758 -0.3611,0.154758 -0.58464,0.40409 -0.22354,0.240734 -0.3697,0.58464 -0.13756,0.335309 -0.18915,0.679215 -0.0516,0.335309 -0.0516,0.722203 v 5.038227 h -1.89148 v -9.147906 h 1.89148 v 0.558847 q 0.42989,-0.395492 0.90276,-0.55025 0.47287,-0.163355 1.20367,-0.163355 0.79098,0 1.41002,0.232136 0.61903,0.22354 0.98873,0.584641 0.37829,0.361102 0.61903,0.851168 0.24073,0.490066 0.32671,0.971535 0.0946,0.472871 0.0946,0.988731 v 5.674453 h -1.89148 v -5.829211 q 0,-0.95434 -0.41269,-1.349832 -0.41269,-0.40409 -1.20367,-0.40409 z"
           style="font-weight:bold;font-family:Loma;-inkscape-font-specification:'Loma Bold';fill:#000000;fill-opacity:0.513041;stroke-width:0.360051"
           id="path51883" />
        <path
           d="m 119.00139,44.783641 q -0.91135,0 -1.59916,-0.189149 -0.67922,-0.189148 -1.06611,-0.481469 -0.3869,-0.283722 -0.62763,-0.705007 -0.23214,-0.421286 -0.30952,-0.80818 -0.0688,-0.386895 -0.0688,-0.859766 h 1.89149 q 0,0.189149 0.0946,0.40409 0.10317,0.214941 0.30092,0.421285 0.19775,0.214942 0.55885,0.352504 0.3611,0.14616 0.81678,0.14616 2.24398,0 2.24398,-2.60509 -0.95434,0.756594 -2.20959,0.756594 -1.81411,0 -2.88022,-1.306844 -1.06611,-1.315441 -1.06611,-3.353085 0,-2.140817 1.08331,-3.447661 1.0919,-1.306843 2.87161,-1.306843 0.72221,0 1.33264,0.266527 0.61903,0.266527 0.86836,0.687813 v -0.782387 h 1.89149 v 7.892648 q 0,1.21227 -0.18055,2.072035 -0.17196,0.868364 -0.49007,1.418614 -0.31811,0.55025 -0.85117,0.868363 -0.52445,0.318113 -1.14349,0.43848 -0.61043,0.120368 -1.4616,0.120368 z m 0.13757,-11.26293 q -2.16661,0 -2.16661,2.957594 0,1.556175 0.51586,2.286976 0.52445,0.730801 1.66794,0.730801 1.0919,0 1.58197,-0.713605 0.49866,-0.722204 0.49866,-2.261184 0,-0.739398 -0.12896,-1.289648 -0.12897,-0.558848 -0.32671,-0.876961 -0.19775,-0.318114 -0.49007,-0.507262 -0.28372,-0.197746 -0.55885,-0.25793 -0.26652,-0.06878 -0.59323,-0.06878 z"
           style="font-weight:bold;font-family:Loma;-inkscape-font-specification:'Loma Bold';fill:#000000;fill-opacity:0.513041;stroke-width:0.360051"
           id="path51885" />
        <path
           d="M 125.26909,41.103844 V 28.49968 h 1.89148 v 12.604164 z"
           style="font-weight:bold;font-family:Loma;-inkscape-font-specification:'Loma Bold';fill:#000000;fill-opacity:0.513041;stroke-width:0.360051"
           id="path51887" />
        <path
           d="M 129.2584,30.614703 V 28.49968 h 1.8141 v 2.115023 z m -0.043,10.489141 v -9.130711 h 1.89148 v 9.130711 z"
           style="font-weight:bold;font-family:Loma;-inkscape-font-specification:'Loma Bold';fill:#000000;fill-opacity:0.513041;stroke-width:0.360051"
           id="path51889" />
        <path
           d="m 140.2548,38.335398 q 0,1.341235 -1.04032,2.115024 -1.03171,0.773789 -2.63948,0.773789 -0.89415,0 -1.59056,-0.214942 -0.69641,-0.214941 -1.1091,-0.533054 -0.41269,-0.326711 -0.68781,-0.773789 -0.27513,-0.447078 -0.3869,-0.833973 -0.10317,-0.395492 -0.12896,-0.816777 h 1.89148 q 0.086,0.705008 0.60184,1.083304 0.52446,0.3697 1.40142,0.3697 0.85116,0 1.32404,-0.318114 0.47287,-0.318113 0.47287,-0.687812 0,-0.249332 -0.086,-0.429883 -0.086,-0.189148 -0.20634,-0.300918 -0.12037,-0.120367 -0.3783,-0.206344 -0.24933,-0.09457 -0.46427,-0.14616 -0.20635,-0.05159 -0.60184,-0.120367 -0.53305,-0.09457 -0.89416,-0.171953 -0.3525,-0.08598 -0.78238,-0.206344 -0.42129,-0.128965 -0.69641,-0.266527 -0.26653,-0.137563 -0.54165,-0.343906 -0.27513,-0.214942 -0.42989,-0.472872 -0.15476,-0.257929 -0.25793,-0.601835 -0.0946,-0.352504 -0.0946,-0.782387 0,-1.195074 0.94574,-1.917277 0.94574,-0.730801 2.41594,-0.730801 0.87696,0 1.53898,0.189148 0.67062,0.189149 1.04892,0.472871 0.38689,0.283723 0.62763,0.679215 0.24073,0.386895 0.31811,0.730801 0.0774,0.343906 0.086,0.713605 h -1.89149 q -0.086,-1.066109 -1.61636,-1.066109 -0.82537,0 -1.20367,0.275125 -0.3783,0.275125 -0.3783,0.627629 0,0.283723 0.12037,0.481469 0.12037,0.189148 0.3783,0.318113 0.26652,0.128965 0.53305,0.206344 0.27513,0.06878 0.7222,0.154757 2.06344,0.378297 2.87162,0.95434 0.80818,0.567446 0.80818,1.79691 z"
           style="font-weight:bold;font-family:Loma;-inkscape-font-specification:'Loma Bold';fill:#000000;fill-opacity:0.513041;stroke-width:0.360051"
           id="path51891" />
        <path
           d="m 146.05822,33.520711 q -0.65343,0 -1.14349,0.40409 -0.49007,0.395492 -0.71361,0.971535 -0.21494,0.576043 -0.21494,1.203672 v 5.003836 H 142.0947 V 28.49968 h 1.89148 v 4.049496 q 0.66202,-0.747996 2.10643,-0.747996 0.79098,0 1.41001,0.232136 0.61903,0.22354 0.98873,0.584641 0.3783,0.361102 0.61903,0.851168 0.24074,0.490066 0.32672,0.971535 0.0946,0.472871 0.0946,0.988731 v 5.674453 h -1.89148 v -5.794821 q 0,-0.997328 -0.3955,-1.39282 -0.39549,-0.395492 -1.18647,-0.395492 z"
           style="font-weight:bold;font-family:Loma;-inkscape-font-specification:'Loma Bold';fill:#000000;fill-opacity:0.513041;stroke-width:0.360051"
           id="path51893" />
        <path
           d="m 101.05808,55.499758 q 0.29233,0 0.55885,0.05159 0.27513,0.04299 0.49867,0.137563 0.22354,0.08598 0.40409,0.180551 0.18055,0.08598 0.33531,0.214941 0.16335,0.120367 0.24933,0.197746 0.0946,0.07738 0.18915,0.171953 0.10317,0.09457 0.11177,0.103172 0.3611,-0.206344 0.55884,-0.902754 0.20635,-0.705008 0.20635,-1.667945 0,-2.097828 -1.00593,-3.26711 -1.00593,-1.169281 -2.89741,-1.169281 -0.911351,0 -1.616359,0.266528 -0.69641,0.257929 -1.13489,0.687812 -0.429883,0.429883 -0.705008,1.040316 -0.275125,0.610434 -0.378297,1.246661 -0.103172,0.627629 -0.103172,1.358429 0,1.50459 0.558848,2.381551 0.558847,0.876961 1.298246,0.988731 0.240734,-0.885559 1.066109,-1.453004 0.833973,-0.567446 1.805503,-0.567446 z m -0.79958,-7.841062 q 1.8313,0 3.18973,0.80818 1.35843,0.799582 2.07204,2.23539 0.7136,1.435809 0.7136,3.327293 0,1.573371 -0.37829,2.527711 -0.3697,0.95434 -1.16069,1.616359 0.30952,0.343907 0.64483,0.343907 0.65342,0 1.21227,-0.455676 l 1.0833,1.461601 q -0.94574,0.885559 -2.23539,0.885559 -1.34983,0 -2.08923,-0.868363 -0.7308,0.481468 -1.44441,0.679215 -0.7136,0.189148 -1.61635,0.189148 -1.788317,0 -3.155344,-0.799582 -1.367028,-0.799582 -2.097829,-2.209598 -0.7308,-1.418613 -0.7308,-3.224121 0,-3.017777 1.573371,-4.763101 1.573371,-1.753922 4.419192,-1.753922 z m 2.14082,10.325785 q -0.54165,-0.593238 -1.16928,-0.593238 -0.45568,0 -0.89416,0.249332 -0.429881,0.240734 -0.619029,0.790984 0.292319,0.08598 0.713609,0.08598 0.65342,0 1.17787,-0.163356 0.52446,-0.163355 0.79099,-0.369699 z"
           style="font-weight:bold;font-family:Loma;-inkscape-font-specification:'Loma Bold';fill:#000000;fill-opacity:0.513041;stroke-width:0.360051"
           id="path51895" />
        <path
           d="m 112.22644,58.689489 q 0.93714,0 1.39282,-0.524457 0.45568,-0.533055 0.45568,-1.332637 V 51.16654 h 1.89148 v 9.13071 h -1.89148 v -0.29232 q -0.34391,0.206344 -0.90276,0.300918 -0.55885,0.103172 -0.91995,0.103172 -0.85976,0 -1.53038,-0.214941 -0.66202,-0.214942 -1.07471,-0.567446 -0.40409,-0.352504 -0.66202,-0.84257 -0.25793,-0.490066 -0.3611,-0.980133 -0.0946,-0.490066 -0.0946,-1.048914 V 51.16654 h 1.89148 v 5.622867 q 0,0.533054 0.17196,0.928547 0.17195,0.386894 0.44707,0.593238 0.28373,0.197746 0.57605,0.29232 0.30091,0.08598 0.61043,0.08598 z"
           style="font-weight:bold;font-family:Loma;-inkscape-font-specification:'Loma Bold';fill:#000000;fill-opacity:0.513041;stroke-width:0.360051"
           id="path51897" />
        <path
           d="m 118.46834,49.80811 v -2.115023 h 1.8141 v 2.115023 z m -0.043,10.48914 v -9.13071 h 1.89148 v 9.13071 z"
           style="font-weight:bold;font-family:Loma;-inkscape-font-specification:'Loma Bold';fill:#000000;fill-opacity:0.513041;stroke-width:0.360051"
           id="path51899" />
        <path
           d="m 121.68386,60.29725 v -1.719531 l 5.36494,-5.691648 h -5.19298 V 51.16654 h 7.63471 v 1.719531 l -5.19298,5.691648 h 5.46811 v 1.719531 z"
           style="font-weight:bold;font-family:Loma;-inkscape-font-specification:'Loma Bold';fill:#000000;fill-opacity:0.513041;stroke-width:0.360051"
           id="path51901" />
      </g>
      <g
         aria-label="English Quiz"
         id="text8211"
         style="font-size:17.608px;line-height:1.05;fill:#ffffff;stroke-width:0.381367">
        <path
           d="M 94.807589,41.103844 V 28.637242 h 9.113511 v 1.891485 h -7.050074 v 3.3015 h 5.321954 v 1.891484 h -5.321954 v 3.490648 h 7.050074 v 1.891485 z"
           style="font-weight:bold;font-family:Loma;-inkscape-font-specification:'Loma Bold';stroke-width:0.381367"
           id="path51840" />
        <path
           d="m 109.8105,33.520711 q -0.47287,0 -0.84257,0.154758 -0.3611,0.154758 -0.58464,0.40409 -0.22354,0.240734 -0.3697,0.58464 -0.13756,0.335309 -0.18915,0.679215 -0.0516,0.335309 -0.0516,0.722203 v 5.038227 h -1.89148 v -9.147906 h 1.89148 v 0.558847 q 0.42989,-0.395492 0.90276,-0.55025 0.47287,-0.163355 1.20367,-0.163355 0.79098,0 1.41002,0.232136 0.61903,0.22354 0.98873,0.584641 0.37829,0.361102 0.61903,0.851168 0.24073,0.490066 0.32671,0.971535 0.0946,0.472871 0.0946,0.988731 v 5.674453 h -1.89148 v -5.829211 q 0,-0.95434 -0.41269,-1.349832 -0.41269,-0.40409 -1.20367,-0.40409 z"
           style="font-weight:bold;font-family:Loma;-inkscape-font-specification:'Loma Bold';stroke-width:0.381367"
           id="path51842" />
        <path
           d="m 119.00139,44.783641 q -0.91135,0 -1.59916,-0.189149 -0.67922,-0.189148 -1.06611,-0.481469 -0.3869,-0.283722 -0.62763,-0.705007 -0.23214,-0.421286 -0.30952,-0.80818 -0.0688,-0.386895 -0.0688,-0.859766 h 1.89149 q 0,0.189149 0.0946,0.40409 0.10317,0.214941 0.30092,0.421285 0.19775,0.214942 0.55885,0.352504 0.3611,0.14616 0.81678,0.14616 2.24398,0 2.24398,-2.60509 -0.95434,0.756594 -2.20959,0.756594 -1.81411,0 -2.88022,-1.306844 -1.06611,-1.315441 -1.06611,-3.353085 0,-2.140817 1.08331,-3.447661 1.0919,-1.306843 2.87161,-1.306843 0.72221,0 1.33264,0.266527 0.61903,0.266527 0.86836,0.687813 v -0.782387 h 1.89149 v 7.892648 q 0,1.21227 -0.18055,2.072035 -0.17196,0.868364 -0.49007,1.418614 -0.31811,0.55025 -0.85117,0.868363 -0.52445,0.318113 -1.14349,0.43848 -0.61043,0.120368 -1.4616,0.120368 z m 0.13757,-11.26293 q -2.16661,0 -2.16661,2.957594 0,1.556175 0.51586,2.286976 0.52445,0.730801 1.66794,0.730801 1.0919,0 1.58197,-0.713605 0.49866,-0.722204 0.49866,-2.261184 0,-0.739398 -0.12896,-1.289648 -0.12897,-0.558848 -0.32671,-0.876961 -0.19775,-0.318114 -0.49007,-0.507262 -0.28372,-0.197746 -0.55885,-0.25793 -0.26652,-0.06878 -0.59323,-0.06878 z"
           style="font-weight:bold;font-family:Loma;-inkscape-font-specification:'Loma Bold';stroke-width:0.381367"
           id="path51844" />
        <path
           d="M 125.26909,41.103844 V 28.49968 h 1.89148 v 12.604164 z"
           style="font-weight:bold;font-family:Loma;-inkscape-font-specification:'Loma Bold';stroke-width:0.381367"
           id="path51846" />
        <path
           d="M 129.2584,30.614703 V 28.49968 h 1.8141 v 2.115023 z m -0.043,10.489141 v -9.130711 h 1.89148 v 9.130711 z"
           style="font-weight:bold;font-family:Loma;-inkscape-font-specification:'Loma Bold';stroke-width:0.381367"
           id="path51848" />
        <path
           d="m 140.2548,38.335398 q 0,1.341235 -1.04032,2.115024 -1.03171,0.773789 -2.63948,0.773789 -0.89415,0 -1.59056,-0.214942 -0.69641,-0.214941 -1.1091,-0.533054 -0.41269,-0.326711 -0.68781,-0.773789 -0.27513,-0.447078 -0.3869,-0.833973 -0.10317,-0.395492 -0.12896,-0.816777 h 1.89148 q 0.086,0.705008 0.60184,1.083304 0.52446,0.3697 1.40142,0.3697 0.85116,0 1.32404,-0.318114 0.47287,-0.318113 0.47287,-0.687812 0,-0.249332 -0.086,-0.429883 -0.086,-0.189148 -0.20634,-0.300918 -0.12037,-0.120367 -0.3783,-0.206344 -0.24933,-0.09457 -0.46427,-0.14616 -0.20635,-0.05159 -0.60184,-0.120367 -0.53305,-0.09457 -0.89416,-0.171953 -0.3525,-0.08598 -0.78238,-0.206344 -0.42129,-0.128965 -0.69641,-0.266527 -0.26653,-0.137563 -0.54165,-0.343906 -0.27513,-0.214942 -0.42989,-0.472872 -0.15476,-0.257929 -0.25793,-0.601835 -0.0946,-0.352504 -0.0946,-0.782387 0,-1.195074 0.94574,-1.917277 0.94574,-0.730801 2.41594,-0.730801 0.87696,0 1.53898,0.189148 0.67062,0.189149 1.04892,0.472871 0.38689,0.283723 0.62763,0.679215 0.24073,0.386895 0.31811,0.730801 0.0774,0.343906 0.086,0.713605 h -1.89149 q -0.086,-1.066109 -1.61636,-1.066109 -0.82537,0 -1.20367,0.275125 -0.3783,0.275125 -0.3783,0.627629 0,0.283723 0.12037,0.481469 0.12037,0.189148 0.3783,0.318113 0.26652,0.128965 0.53305,0.206344 0.27513,0.06878 0.7222,0.154757 2.06344,0.378297 2.87162,0.95434 0.80818,0.567446 0.80818,1.79691 z"
           style="font-weight:bold;font-family:Loma;-inkscape-font-specification:'Loma Bold';stroke-width:0.381367"
           id="path51850" />
        <path
           d="m 146.05822,33.520711 q -0.65343,0 -1.14349,0.40409 -0.49007,0.395492 -0.71361,0.971535 -0.21494,0.576043 -0.21494,1.203672 v 5.003836 H 142.0947 V 28.49968 h 1.89148 v 4.049496 q 0.66202,-0.747996 2.10643,-0.747996 0.79098,0 1.41001,0.232136 0.61903,0.22354 0.98873,0.584641 0.3783,0.361102 0.61903,0.851168 0.24074,0.490066 0.32672,0.971535 0.0946,0.472871 0.0946,0.988731 v 5.674453 h -1.89148 v -5.794821 q 0,-0.997328 -0.3955,-1.39282 -0.39549,-0.395492 -1.18647,-0.395492 z"
           style="font-weight:bold;font-family:Loma;-inkscape-font-specification:'Loma Bold';stroke-width:0.381367"
           id="path51852" />
        <path
           d="m 101.05808,55.499758 q 0.29233,0 0.55885,0.05159 0.27513,0.04299 0.49867,0.137563 0.22354,0.08598 0.40409,0.180551 0.18055,0.08598 0.33531,0.214941 0.16335,0.120367 0.24933,0.197746 0.0946,0.07738 0.18915,0.171953 0.10317,0.09457 0.11177,0.103172 0.3611,-0.206344 0.55884,-0.902754 0.20635,-0.705008 0.20635,-1.667945 0,-2.097828 -1.00593,-3.26711 -1.00593,-1.169281 -2.89741,-1.169281 -0.911351,0 -1.616359,0.266528 -0.69641,0.257929 -1.13489,0.687812 -0.429883,0.429883 -0.705008,1.040316 -0.275125,0.610434 -0.378297,1.246661 -0.103172,0.627629 -0.103172,1.358429 0,1.50459 0.558848,2.381551 0.558847,0.876961 1.298246,0.988731 0.240734,-0.885559 1.066109,-1.453004 0.833973,-0.567446 1.805503,-0.567446 z m -0.79958,-7.841062 q 1.8313,0 3.18973,0.80818 1.35843,0.799582 2.07204,2.23539 0.7136,1.435809 0.7136,3.327293 0,1.573371 -0.37829,2.527711 -0.3697,0.95434 -1.16069,1.616359 0.30952,0.343907 0.64483,0.343907 0.65342,0 1.21227,-0.455676 l 1.0833,1.461601 q -0.94574,0.885559 -2.23539,0.885559 -1.34983,0 -2.08923,-0.868363 -0.7308,0.481468 -1.44441,0.679215 -0.7136,0.189148 -1.61635,0.189148 -1.788317,0 -3.155344,-0.799582 -1.367028,-0.799582 -2.097829,-2.209598 -0.7308,-1.418613 -0.7308,-3.224121 0,-3.017777 1.573371,-4.763101 1.573371,-1.753922 4.419192,-1.753922 z m 2.14082,10.325785 q -0.54165,-0.593238 -1.16928,-0.593238 -0.45568,0 -0.89416,0.249332 -0.429881,0.240734 -0.619029,0.790984 0.292319,0.08598 0.713609,0.08598 0.65342,0 1.17787,-0.163356 0.52446,-0.163355 0.79099,-0.369699 z"
           style="font-weight:bold;font-family:Loma;-inkscape-font-specification:'Loma Bold';stroke-width:0.381367"
           id="path51854" />
        <path
           d="m 112.22644,58.689489 q 0.93714,0 1.39282,-0.524457 0.45568,-0.533055 0.45568,-1.332637 V 51.16654 h 1.89148 v 9.13071 h -1.89148 v -0.29232 q -0.34391,0.206344 -0.90276,0.300918 -0.55885,0.103172 -0.91995,0.103172 -0.85976,0 -1.53038,-0.214941 -0.66202,-0.214942 -1.07471,-0.567446 -0.40409,-0.352504 -0.66202,-0.84257 -0.25793,-0.490066 -0.3611,-0.980133 -0.0946,-0.490066 -0.0946,-1.048914 V 51.16654 h 1.89148 v 5.622867 q 0,0.533054 0.17196,0.928547 0.17195,0.386894 0.44707,0.593238 0.28373,0.197746 0.57605,0.29232 0.30091,0.08598 0.61043,0.08598 z"
           style="font-weight:bold;font-family:Loma;-inkscape-font-specification:'Loma Bold';stroke-width:0.381367"
           id="path51856" />
        <path
           d="m 118.46834,49.80811 v -2.115023 h 1.8141 v 2.115023 z m -0.043,10.48914 v -9.13071 h 1.89148 v 9.13071 z"
           style="font-weight:bold;font-family:Loma;-inkscape-font-specification:'Loma Bold';stroke-width:0.381367"
           id="path51858" />
        <path
           d="m 121.68386,60.29725 v -1.719531 l 5.36494,-5.691648 h -5.19298 V 51.16654 h 7.63471 v 1.719531 l -5.19298,5.691648 h 5.46811 v 1.719531 z"
           style="font-weight:bold;font-family:Loma;-inkscape-font-specification:'Loma Bold';stroke-width:0.381367"
           id="path51860" />
      </g>
    </g>
  </g>
</svg>
